<svg xmlns:xlink="http://www.w3.org/1999/xlink" xmlns="http://www.w3.org/2000/svg" viewBox="0 0 107.43 104.56">
    <defs>
        <linearGradient id="a" x1="36.52" y1="44.59" x2="66.62" y2="58.92" gradientUnits="userSpaceOnUse">
            <stop offset="0" stop-color="#91eae4"/>
            <stop offset="1" stop-color="#818cf8"/>
        </linearGradient>
        <linearGradient id="b" x1="-11.63" y1="21.19" x2="107.68" y2="77.96" xlink:href="#a"/>
    </defs>
    <g data-name="图层 2">
        <g data-name="图层 5">
            <path
                d="m60.89 41.6-6.22 5.76-9.1 8.45a5.4 5.4 0 0 1-2.1-4.18A5.28 5.28 0 0 1 45 48a5.67 5.67 0 0 1 .62-.58l10.81-10-3.56-3.3L38 47.89l-4.72 4.38 4.72 4.4 7.14 6.63 7.15-6.63 9.1-8.45a5.41 5.41 0 0 1 2.12 4.2 5.2 5.2 0 0 1-1.34 3.44l-1 .92-11.52 10.7 3.54 3.28 15.19-14.09 4.37-4.06-5.08-4.72Z"
                fill="url(#a)"/>
            <path
                d="M0 0v104.56h107.43V0Zm78.26 55.86-1 .92-19.57 18.16L71.9 88.12a5.67 5.67 0 0 1 .62.58A5.26 5.26 0 0 1 74 92.3a5.43 5.43 0 0 1-2.1 4.19L62.8 88l-9.61-8.92L43.58 88l-9.11 8.45a5.43 5.43 0 0 1-2.1-4.19 5.26 5.26 0 0 1 1.48-3.6 5 5 0 0 1 .63-.58l14.2-13.18-3.54-3.28-4.51-4.18L29.1 56.78l-1-.92a5.2 5.2 0 0 1-1.34-3.44v-.26a5.28 5.28 0 0 1 1.48-3.61 5 5 0 0 1 .63-.58l19.44-18L34 16.63l-1-.91a5.29 5.29 0 0 1-1.33-3.45 5.39 5.39 0 0 1 2.11-4.19l9.11 8.44 10 9.24 10-9.24L72 8.08a5.43 5.43 0 0 1 2 4.19 5.25 5.25 0 0 1-1.34 3.45l-1 .91-14.33 13.31 3.56 3.3 4.5 4.18L76.77 48a5.35 5.35 0 0 1 .5.45s2.33 2.34 2.33 4a5.2 5.2 0 0 1-1.34 3.41Z"
                fill="url(#b)"/>
        </g>
    </g>
</svg>