<svg xmlns="http://www.w3.org/2000/svg" viewBox="0 0 739.83 132.21">
    <defs>
        <linearGradient id="a" x1="249.94" y1="332.73" x2="341.2" y2="376.15" gradientUnits="userSpaceOnUse">
            <stop offset="0" stop-color="#91eae4"/>
            <stop offset="1" stop-color="#818cf8"/>
        </linearGradient>
    </defs>
    <path fill="url(#a)"
          d="M335.4 350.94c-.23-.24-.47-.46-.72-.68l-16.56-15.78-6.56-6.25-5.17-4.93 20.88-19.9 1.43-1.4a7.94 7.94 0 0 0 1.95-5.15 8.18 8.18 0 0 0-3.08-6.28l-13.26 12.64L299.83 317l-14.49-13.8-13.25-12.6a8.18 8.18 0 0 0-3.08 6.28A8 8 0 0 0 271 302l1.44 1.37 20.88 19.9-28.3 27a9.35 9.35 0 0 0-.91.87 8 8 0 0 0-2.15 5.4v.38a7.92 7.92 0 0 0 1.95 5.15l1.43 1.37 16.79 16 6.57 6.25 5.14 4.9-20.72 19.71a9.25 9.25 0 0 0-.91.86 8 8 0 0 0-2.15 5.4 8.17 8.17 0 0 0 3.05 6.25l13.26-12.63 14-13.33 14 13.33 13.26 12.63a8.17 8.17 0 0 0 3-6.25 8 8 0 0 0-2.16-5.4 8.15 8.15 0 0 0-.9-.86l-20.67-19.71 28.49-27.16 1.44-1.37a7.91 7.91 0 0 0 1.94-5.15c.02-2.47-3.37-5.97-3.37-5.97Zm-35 33.4-5.14-4.9 16.79-16 1.43-1.37a7.92 7.92 0 0 0 1.95-5.15 8.16 8.16 0 0 0-3.08-6.27l-13.25 12.63-10.4 9.91-10.4-9.91-6.9-6.57 6.87-6.55 21.61-20.6 5.17 4.93-15.72 15a8.34 8.34 0 0 0-.91.87 7.94 7.94 0 0 0-2.15 5.39 8.16 8.16 0 0 0 3 6.26l13.25-12.64 9-8.61 9.88 9.41 7.39 7.05-6.37 6.07Z"
          transform="translate(-261.91 -290.6)"/>
    <path fill="#818cf8"
          d="M121.01 99.19a42.82 42.82 0 0 1-10.29-3.69 40.38 40.38 0 0 1-8.82-6.15l8.27-10.19a46.6 46.6 0 0 0 11.42 6.57 31 31 0 0 0 11.21 2.18q8.27 0 12.41-2.56a8.46 8.46 0 0 0 4.13-7.69 6 6 0 0 0-2.25-5.13 12.82 12.82 0 0 0-5.61-2.29c-2.23-.38-5.38-.74-9.43-1.06h-1.17c-.41 0-.79-.06-1.16-.1a3.27 3.27 0 0 1-.54 0h-.55a55.56 55.56 0 0 1-11.69-2 15.82 15.82 0 0 1-8-5.5q-3.18-4-3.18-11.55t3.11-12.63a18.7 18.7 0 0 1 9.16-7.49q6.06-2.51 15.25-2.51a53 53 0 0 1 10.56 1 46.64 46.64 0 0 1 18.42 8.14l-8.41 10.18a46.7 46.7 0 0 0-10.49-5.13 32.21 32.21 0 0 0-10.08-1.7q-7.11 0-10.67 2.42a8.23 8.23 0 0 0-3.55 7.28 4.93 4.93 0 0 0 2 4.31 11.73 11.73 0 0 0 5.09 1.91c2.05.32 5 .6 8.75.82a4.72 4.72 0 0 0 .85.07 7.56 7.56 0 0 1 .93.07h.41a1.22 1.22 0 0 1 .41.07 60.88 60.88 0 0 1 12.68 2 17.12 17.12 0 0 1 8.78 6q3.56 4.44 3.56 12.85 0 7.65-3.29 12.68a19.75 19.75 0 0 1-9.87 7.55q-6.6 2.53-16.58 2.53a53.92 53.92 0 0 1-11.77-1.26ZM170.74 28.4h14.22l21.8 61.66-7.67 15.15Zm62.82 0-30.21 87.57a20.88 20.88 0 0 1-4.26 7.73 15.12 15.12 0 0 1-6.56 4.07 32.16 32.16 0 0 1-9.57 1.23h-2.87v-13.4h2.81a10.81 10.81 0 0 0 6.18-1.57 12.56 12.56 0 0 0 4-5.4l26.26-80.23ZM245.86 28.4h14v71h-14Zm43.07 28q0-7.51-3.9-11.62t-10.94-4.1q-6.84 0-10.56 3.62t-3.73 10.19l-1.44-13.68a25.42 25.42 0 0 1 8.58-9.91 20.93 20.93 0 0 1 11.74-3.5q11.55 0 17.87 7.55t6.33 21.36V99.4h-13.95ZM324.09 28.4h13.94v71h-13.94Zm42.38 28q0-7.51-3.69-11.62t-10.46-4.1q-6.84 0-10.56 3.62t-3.73 10.19l-1.43-13.68a25.34 25.34 0 0 1 8.58-9.91 20.9 20.9 0 0 1 11.7-3.5 23 23 0 0 1 12.72 3.38 21.36 21.36 0 0 1 8 9.88 39.93 39.93 0 0 1 2.77 15.65V99.4h-13.92Zm42.38 0q0-7.51-3.89-11.62t-10.94-4.1q-6.49 0-10 4t-3.55 11.21l-2.81-13.67a27.3 27.3 0 0 1 8.86-10.9 20.59 20.59 0 0 1 12.06-3.92 24.24 24.24 0 0 1 13.09 3.38 21.32 21.32 0 0 1 8.27 9.88 39 39 0 0 1 2.84 15.65V99.4h-14ZM443.97 0h14v13.95h-14Zm0 28.44h14v71h-14ZM491.17 96.8a24.41 24.41 0 0 1-10.49-10.53q-3.59-6.87-3.59-16.68V57.9q0-9.63 3.62-16.47A24.4 24.4 0 0 1 491.2 31q6.87-3.59 16.58-3.58a39.35 39.35 0 0 1 10.42 1.33 31.24 31.24 0 0 1 8.79 3.86 24 24 0 0 1 6.49 6.15l-10.05 9a20.79 20.79 0 0 0-7-5.27 20 20 0 0 0-8.4-1.84q-8.07 0-12.51 4.51t-4.45 12.71v11.69q0 8.42 4.41 13t12.55 4.58a19 19 0 0 0 8.47-2 20.54 20.54 0 0 0 7-5.61l10.05 9.71a24.67 24.67 0 0 1-6.56 6.05 30.9 30.9 0 0 1-8.78 3.79 40 40 0 0 1-10.36 1.3q-9.76.02-16.68-3.58ZM548.83 28.4h14v71h-14Zm34.39 13.4a17 17 0 0 0-6.5-1.16q-6.63 0-10.28 3.65t-3.66 10.16l-1.44-13.68a26.1 26.1 0 0 1 8.48-9.87 20 20 0 0 1 11.48-3.5 25.9 25.9 0 0 1 8.79 1.4 19.63 19.63 0 0 1 6.87 4.13l-9.09 12.31a11.57 11.57 0 0 0-4.65-3.4ZM618.63 96.8a23.93 23.93 0 0 1-10-10.56 37.24 37.24 0 0 1-3.45-16.72V57.97a36.46 36.46 0 0 1 3.45-16.51 23.85 23.85 0 0 1 10-10.46 36.61 36.61 0 0 1 31.58 0 23.85 23.85 0 0 1 10 10.46 36.46 36.46 0 0 1 3.45 16.51v11.76q0 9.71-3.45 16.58a24 24 0 0 1-10 10.49 36.25 36.25 0 0 1-31.58 0Zm27.1-14.22q4-4.57 4-12.85V57.97q0-8.26-4-12.78t-11.31-4.51q-7.32 0-11.31 4.51t-4 12.78v11.76q0 8.26 4 12.85t11.31 4.58q7.32 0 11.31-4.58ZM683.5 0h14v99.4h-14Zm20.24 97.24a18.56 18.56 0 0 1-7.25-9l1-14.84a16.86 16.86 0 0 0 1.64 7.79 11.32 11.32 0 0 0 4.75 4.93 15.46 15.46 0 0 0 7.55 1.71q6.91 0 10.7-4.21t3.79-11.86V56.4q0-7.8-3.79-12.1t-10.7-4.31a16 16 0 0 0-7.55 1.64 11 11 0 0 0-4.75 4.82 16.37 16.37 0 0 0-1.64 7.63l-1.48-13.68a24.72 24.72 0 0 1 8.41-9.6 20.66 20.66 0 0 1 11.55-3.4 23.63 23.63 0 0 1 12.89 3.38 21.25 21.25 0 0 1 8.17 9.88 39.38 39.38 0 0 1 2.8 15.65v15.45a37.75 37.75 0 0 1-2.87 15.45 21.37 21.37 0 0 1-8.41 9.81 24.9 24.9 0 0 1-13.26 3.38 20.8 20.8 0 0 1-11.55-3.16Z"/>
</svg>